<svg width="144" height="144" viewBox="0 0 144 144" fill="none" xmlns="http://www.w3.org/2000/svg">
<rect x="125" y="125" width="106" height="106" rx="53" transform="rotate(180 125 125)" stroke="black" stroke-width="4"/>
<mask id="path-2-inside-1_4_26" fill="white">
<path d="M117 72C117 96.8528 96.8528 117 72 117V117C47.1472 117 27 96.8528 27 72V72C27 47.1472 47.1472 27 72 27V27C96.8528 27 117 47.1472 117 72V72Z"/>
</mask>
<path d="M67.5879 27.2139L67.418 25.4648L67.2002 23.2324C68.7805 23.0786 70.3816 23 72 23C73.6184 23 75.2195 23.0786 76.7998 23.2324L76.4121 27.2139L76.0254 31.1943C75.8511 31.1774 75.6759 31.1652 75.501 31.1504C75.3589 31.1384 75.2167 31.1248 75.0742 31.1143C74.8084 31.0946 74.5417 31.079 74.2744 31.0645C74.2165 31.0613 74.1586 31.0566 74.1006 31.0537C73.8298 31.0401 73.5583 31.0308 73.2861 31.0225C73.2028 31.0199 73.1195 31.0157 73.0361 31.0137C72.6919 31.0051 72.3465 31 72 31C71.6538 31 71.3088 31.0052 70.9648 31.0137C70.8814 31.0157 70.7981 31.0199 70.7148 31.0225C70.4426 31.0308 70.1711 31.0401 69.9004 31.0537C69.8424 31.0566 69.7845 31.0613 69.7266 31.0645C69.4593 31.079 69.1926 31.0946 68.9268 31.1143C68.7842 31.1248 68.6421 31.1384 68.5 31.1504C68.3248 31.1652 68.1492 31.1773 67.9746 31.1943L67.5879 27.2139ZM90.9336 35.627C90.815 35.5651 90.6964 35.5031 90.5771 35.4424C90.3883 35.3462 90.1983 35.2525 90.0078 35.1592C89.9076 35.1101 89.8077 35.06 89.707 35.0117C89.4856 34.9055 89.2626 34.8025 89.0391 34.7002C88.9632 34.6655 88.8877 34.63 88.8115 34.5957C88.6055 34.5029 88.3982 34.4127 88.1904 34.3232C88.0834 34.2772 87.9766 34.2307 87.8691 34.1855C87.6672 34.1007 87.4643 34.0182 87.2607 33.9365C87.1573 33.895 87.054 33.8532 86.9502 33.8125C86.7222 33.7232 86.4927 33.6371 86.2627 33.5518C86.189 33.5244 86.1159 33.4957 86.042 33.4688C85.7897 33.3768 85.5359 33.2883 85.2812 33.2012C85.2197 33.1801 85.1584 33.1585 85.0967 33.1377C84.8481 33.054 84.5983 32.9736 84.3477 32.8945C84.2728 32.8709 84.1981 32.8465 84.123 32.8232C84.051 32.801 83.9794 32.7768 83.9072 32.7549L86.2275 25.0986C89.3285 26.0382 92.2992 27.2762 95.1055 28.7793L93.2168 32.3057L92.7783 33.124L91.3281 35.832C91.1976 35.7621 91.065 35.6955 90.9336 35.627ZM52.6719 35.832L50.7832 32.3057L49.999 30.8408L48.8945 28.7793C51.7008 27.2762 54.6715 26.0382 57.7725 25.0986L60.0928 32.7549C60.0209 32.7767 59.9497 32.8011 59.8779 32.8232C59.8029 32.8464 59.7282 32.8709 59.6533 32.8945C59.4027 32.9736 59.1528 33.054 58.9043 33.1377C58.8426 33.1585 58.7813 33.1801 58.7197 33.2012C58.4651 33.2883 58.2113 33.3768 57.959 33.4688C57.8851 33.4957 57.812 33.5244 57.7383 33.5518C57.5083 33.6371 57.2788 33.7232 57.0508 33.8125C56.947 33.8532 56.8437 33.895 56.7402 33.9365C56.5367 34.0182 56.3337 34.1007 56.1318 34.1855C56.0244 34.2307 55.9175 34.2772 55.8105 34.3232C55.6027 34.4127 55.3955 34.5029 55.1895 34.5957C55.1133 34.63 55.0378 34.6655 54.9619 34.7002C54.7383 34.8025 54.5153 34.9055 54.2939 35.0117C54.1932 35.06 54.0934 35.1101 53.9932 35.1592C53.8027 35.2525 53.6126 35.3462 53.4238 35.4424C53.3045 35.5031 53.186 35.5651 53.0674 35.627C52.9358 35.6956 52.8027 35.762 52.6719 35.832ZM103.669 45.959C103.547 45.8107 103.422 45.665 103.298 45.5186C103.206 45.4098 103.115 45.3002 103.021 45.1924C102.916 45.0701 102.807 44.9501 102.7 44.8291C102.587 44.7012 102.475 44.5718 102.36 44.4453C101.471 43.466 100.535 42.53 99.5557 41.6406C99.4292 41.5257 99.2998 41.4141 99.1719 41.3008C99.0521 41.1947 98.9335 41.0871 98.8125 40.9824C98.7035 40.8881 98.5924 40.7963 98.4824 40.7031C98.3359 40.5791 98.1902 40.4541 98.042 40.332C98.0308 40.3228 98.02 40.3129 98.0088 40.3037L100.548 37.2129L101.817 35.668L101.818 35.6689L103.088 34.123C105.566 36.1593 107.841 38.4339 109.877 40.9121L106.787 43.4521L106.225 43.9141L103.696 45.9912C103.687 45.9804 103.678 45.9698 103.669 45.959ZM40.3037 45.9912L37.2129 43.4521L35.668 42.1826H35.6689L34.123 40.9121C36.1593 38.4339 38.4339 36.1592 40.9121 34.123L42.1826 35.6689V35.668L43.4521 37.2129L44.7217 38.7588H44.7227L45.9912 40.3037C45.9802 40.3128 45.97 40.323 45.959 40.332C45.8107 40.4541 45.665 40.5791 45.5186 40.7031C45.4084 40.7965 45.2967 40.888 45.1875 40.9824C45.0666 41.087 44.9487 41.1948 44.8291 41.3008C44.7012 41.4141 44.5718 41.5257 44.4453 41.6406C43.466 42.53 42.53 43.466 41.6406 44.4453C41.5257 44.5718 41.4141 44.7012 41.3008 44.8291C41.1936 44.9501 41.0853 45.0701 40.9795 45.1924C40.8863 45.3002 40.7952 45.4098 40.7031 45.5186C40.5791 45.665 40.4541 45.8107 40.332 45.959C40.323 45.97 40.3128 45.9802 40.3037 45.9912ZM111.178 59.8779C111.155 59.8029 111.13 59.7282 111.106 59.6533C111.027 59.4027 110.947 59.1528 110.863 58.9043C110.843 58.8426 110.821 58.7813 110.8 58.7197C110.713 58.4651 110.624 58.2113 110.532 57.959C110.509 57.8965 110.485 57.8348 110.462 57.7725C110.373 57.531 110.282 57.2901 110.188 57.0508C110.148 56.947 110.106 56.8436 110.064 56.7402C109.985 56.5416 109.904 56.3436 109.821 56.1465C109.774 56.0341 109.726 55.9224 109.678 55.8105C109.588 55.6027 109.498 55.3955 109.405 55.1895C109.371 55.1133 109.335 55.0378 109.301 54.9619C109.198 54.7383 109.095 54.5153 108.989 54.2939C108.941 54.1932 108.891 54.0934 108.842 53.9932C108.749 53.8027 108.655 53.6126 108.559 53.4238C108.498 53.3046 108.436 53.186 108.374 53.0674C108.305 52.9356 108.238 52.8028 108.168 52.6719L115.221 48.8945C116.724 51.7008 117.962 54.6715 118.901 57.7725L111.245 60.0928C111.223 60.021 111.2 59.9496 111.178 59.8779ZM25.0986 57.7725C26.0382 54.6715 27.2762 51.7008 28.7793 48.8945L35.832 52.6719C35.762 52.8027 35.6956 52.9358 35.627 53.0674C35.5651 53.186 35.5031 53.3045 35.4424 53.4238C35.3462 53.6126 35.2525 53.8027 35.1592 53.9932C35.1101 54.0934 35.06 54.1932 35.0117 54.2939C34.9055 54.5153 34.8025 54.7383 34.7002 54.9619C34.6655 55.0378 34.63 55.1133 34.5957 55.1895C34.5029 55.3955 34.4127 55.6027 34.3232 55.8105C34.2751 55.9225 34.2259 56.034 34.1787 56.1465C34.096 56.3435 34.0162 56.5417 33.9365 56.7402C33.895 56.8437 33.8532 56.947 33.8125 57.0508C33.7187 57.2902 33.6275 57.5309 33.5381 57.7725C33.5151 57.8347 33.4915 57.8966 33.4688 57.959C33.3768 58.2113 33.2883 58.4651 33.2012 58.7197C33.1801 58.7813 33.1585 58.8426 33.1377 58.9043C33.054 59.1528 32.9736 59.4027 32.8945 59.6533C32.8709 59.7282 32.8464 59.8029 32.8232 59.8779C32.8011 59.9497 32.7767 60.0209 32.7549 60.0928L25.0986 57.7725ZM113 72C113 71.6113 112.993 71.224 112.982 70.8379C112.965 70.1968 112.934 69.5597 112.887 68.9268C112.877 68.7956 112.863 68.665 112.853 68.5342C112.837 68.3475 112.824 68.1605 112.806 67.9746L116.786 67.5879L118.777 67.3936V67.3945L120.768 67.2002C120.89 68.4606 120.962 69.7344 120.987 71.0195C120.946 72.9699 120.783 74.8904 120.511 76.7754L116.786 76.4121L112.835 76.0283C112.942 74.7012 113 73.3577 113 72ZM23.4893 76.7754C23.2171 74.8904 23.0542 72.9699 23.0127 71.0195C23.038 69.7344 23.1098 68.4606 23.2324 67.2002L25.2227 67.3945V67.3936L27.2139 67.5879L31.1943 67.9746C31.1762 68.1605 31.1631 68.3475 31.1475 68.5342C31.1365 68.6649 31.124 68.7957 31.1143 68.9268C31.0674 69.5597 31.0354 70.1968 31.0176 70.8379C31.0068 71.224 31 71.6113 31 72C31 73.3578 31.0587 74.7012 31.166 76.0283L27.2139 76.4121L23.4893 76.7754ZM113.458 94.1611L111.694 93.2168L108.87 91.7041C109.961 89.2503 110.852 86.6712 111.525 83.9922L115.073 85.0674L118.199 86.0156C117.118 88.9997 115.743 91.843 114.109 94.5107L113.458 94.1611ZM29.8916 94.5107C28.2577 91.8428 26.8823 88.9998 25.8008 86.0156L28.9268 85.0674L32.4756 83.9922C33.1488 86.6712 34.0402 89.2503 35.1309 91.7041L32.3057 93.2168L30.7598 94.0449L29.8916 94.5107ZM100.548 106.787L99.4385 105.437C101.424 103.473 103.234 101.299 104.839 98.9473L106.787 100.548L108.332 101.817V101.818L108.478 101.938C106.388 104.192 104.081 106.242 101.588 108.053L100.548 106.787ZM42.4131 108.053C39.9201 106.242 37.6132 104.192 35.5234 101.938L35.6689 101.818L35.668 101.817L37.2129 100.548L39.1621 98.9473C40.7669 101.299 42.577 103.473 44.5625 105.437L43.4521 106.787L42.4131 108.053ZM85.0674 115.073L84.9561 114.705C87.6932 113.705 90.3015 112.397 92.748 110.818L93.2168 111.694L93.7373 112.665C91.0344 113.918 88.1927 114.92 85.2412 115.645L85.0674 115.073ZM58.7598 115.645C55.8082 114.92 52.9666 113.917 50.2637 112.665L50.7832 111.694L51.2529 110.818C53.6995 112.397 56.3077 113.705 59.0449 114.705L58.9326 115.073L58.7598 115.645ZM72 117C73.4893 117 74.96 116.911 76.4082 116.741L76.4121 116.786L76.4277 116.938C75.6237 116.979 74.8142 117 74 117H72ZM70 117C69.1861 117 68.377 116.979 67.5732 116.938L67.5879 116.786L67.5928 116.741C69.0407 116.911 70.511 117 72 117H70Z" fill="black" mask="url(#path-2-inside-1_4_26)"/>
<rect x="67" y="67" width="10" height="10" rx="5" fill="black"/>
<path d="M92.393 49.983C93.3313 49.1695 94.6172 50.4554 93.8037 51.3936L80.9454 66.2229C80.5653 66.6613 79.8931 66.6852 79.4828 66.2749L77.5117 64.3039C77.1014 63.8936 77.1253 63.2213 77.5637 62.8412L92.393 49.983Z" fill="black"/>
</svg>
